<?xml version="1.0" encoding="UTF-8"?>
<svg xmlns="http://www.w3.org/2000/svg" xmlns:xlink="http://www.w3.org/1999/xlink" width="30px" height="30px" viewBox="0 0 30 30" version="1.1">
<g id="surface1">
<path style="fill-rule:nonzero;fill:rgb(47.843137%,1.960784%,94.117647%);fill-opacity:1;stroke-width:1;stroke-linecap:butt;stroke-linejoin:miter;stroke:rgb(47.843137%,1.960784%,94.117647%);stroke-opacity:1;stroke-miterlimit:4;" d="M 57.001092 31.536848 C 57.001092 30.034348 57.001092 25.738137 57.001092 25.738137 C 57.001092 25.237304 56.703723 24.838202 56.296795 24.736471 L 50.998918 23.233971 L 59.497433 18.93776 C 59.896535 18.734296 60.099998 18.436927 60.099998 18.037825 C 60.099998 17.638724 59.802629 17.333528 59.497433 17.13789 L 30.503879 2.6372 C 30.198684 2.535469 29.901314 2.535469 29.596119 2.6372 L 0.602565 17.13789 C 0.203464 17.333528 -0.000000000000003336 17.638724 -0.000000000000003336 18.037825 C -0.000000000000003336 18.436927 0.203464 18.734296 0.602565 18.93776 L 10.001015 23.640898 L 10.001015 55.53772 L 6.002174 55.53772 L 6.002174 57.533228 L 53.996092 57.533228 L 53.996092 55.53772 L 49.997251 55.53772 L 49.997251 25.033841 L 54.997759 26.434609 L 54.997759 31.536848 C 53.299621 31.536848 52.000585 32.835885 52.000585 34.534023 L 52.000585 46.538371 C 52.000585 48.236509 53.299621 49.535546 54.997759 49.535546 L 57.001092 49.535546 C 58.69923 49.535546 59.998267 48.236509 59.998267 46.538371 L 59.998267 34.534023 C 59.998267 32.835885 58.69923 31.536848 57.001092 31.536848 Z M 30.003046 4.640534 L 56.797629 18.037825 L 48.103475 22.334036 L 30.996887 17.43526 L 30.996887 15.533658 L 29.001379 15.533658 L 29.001379 21.535833 L 30.996887 21.535833 L 30.996887 19.540325 L 45.497577 23.734804 L 30.003046 31.435116 L 3.200638 18.037825 Z M 11.996523 55.53772 L 11.996523 51.538879 L 35.003554 51.538879 L 35.003554 49.535546 L 11.996523 49.535546 L 11.996523 24.634739 L 29.596119 33.43845 C 29.697851 33.540181 29.799583 33.540181 30.003046 33.540181 C 30.198684 33.540181 30.300416 33.540181 30.503879 33.43845 L 48.001744 24.634739 L 48.001744 55.53772 Z M 58.002759 46.538371 C 58.002759 47.133111 57.603657 47.540038 57.001092 47.540038 L 54.997759 47.540038 C 54.403019 47.540038 53.996092 47.133111 53.996092 46.538371 L 53.996092 34.534023 C 53.996092 33.939283 54.403019 33.540181 54.997759 33.540181 L 57.001092 33.540181 C 57.603657 33.540181 58.002759 33.939283 58.002759 34.534023 Z M 58.002759 46.538371 " transform="matrix(0.499168,0,0,0.499168,0.000000000000001665,0.000000000000001665)"/>
<path style="fill-rule:nonzero;fill:rgb(47.843137%,1.960784%,94.117647%);fill-opacity:1;stroke-width:1;stroke-linecap:butt;stroke-linejoin:miter;stroke:rgb(47.843137%,1.960784%,94.117647%);stroke-opacity:1;stroke-miterlimit:4;" d="M 38.000728 49.535546 L 43.001236 49.535546 L 43.001236 51.538879 L 38.000728 51.538879 Z M 38.000728 49.535546 " transform="matrix(0.499168,0,0,0.499168,0.000000000000001665,0.000000000000001665)"/>
</g>
</svg>
